<svg id="Layer_1" data-name="Layer 1" xmlns="http://www.w3.org/2000/svg" viewBox="0 0 250 200"><defs><style>.cls-1{fill:#d0d3f7;}.cls-2{fill:#324f83;}</style></defs><title>app-market</title><polygon class="cls-1" points="180.26 105.12 180.26 137.2 67.98 137.2 67.98 105.12 47.13 105.12 47.13 178.9 201.12 178.9 201.12 105.12 180.26 105.12"/><path class="cls-2" d="M25.17,76.27l-2,6.22c-0.43,1.35-.9,2.7-1.29,4.07-1.16,4.1,3.51,6.22,5.84,7.05a35,35,0,0,0,8.45,1.74c1.76,0.17,3.52.25,5.29,0.25,9.71,0,17.47-3,19.62-6.92,1.44,4.73,10.79,8.56,22,8.56,9.54,0,17.68-2.63,20.78-6.3,3.25,3.63,11.32,6.3,20.69,6.3,10.33,0,19-3.07,21.44-7.22,3.17,4,11.53,7.22,21.11,7.22a44,44,0,0,0,12.24-1.6c2.76-.8,5.76-1.89,8-4.13a6.3,6.3,0,0,0,1.46-2.19c1.52,4.09,9.85,6.85,19.92,6.85A37.25,37.25,0,0,0,220.9,94.3c2.49-.85,5.45-2.07,7.19-4.61a5.16,5.16,0,0,0,.9-2.59,3.55,3.55,0,0,0,0-.47c-0.07-.84-3.56-11-4.27-13.18l-0.39-1.17H26.44Z"/><path class="cls-2" d="M219.42,57.4l-2.71-8.23-2.46-7.44-2-6L211,32l-0.33-1H39.53L39,32.64,37.6,37.08l-2.07,6.53L33,51.51l-2.71,8.55L28.74,65H221.93Z"/><path class="cls-1" d="M222.17,65.59c-0.08-.24-0.16-0.35-0.24-0.59H28.74c-0.38,1.18-.75,2.23-1.13,3.42S26.83,71,26.44,72H224.33C223.61,70,222.89,67.77,222.17,65.59Z"/></svg>