<svg id="Layer_1" data-name="Layer 1" xmlns="http://www.w3.org/2000/svg" viewBox="0 0 250 200"><defs><style>.cls-1{fill:#d0d3f7;}.cls-2{fill:#324f83;}</style></defs><title>live-chat</title><path class="cls-1" d="M165,21.87H49.67a7,7,0,0,0-7.18,7.18V64l-22,23.94h22v17.71a7,7,0,0,0,7.18,7.18H165a7,7,0,0,0,7.18-7.18V29.53A7.47,7.47,0,0,0,165,21.87Z"/><path class="cls-2" d="M228.22,153l-21.54-22.5V95.59a7,7,0,0,0-7.18-7.18h-112a7,7,0,0,0-7.18,7.18v76.11a7,7,0,0,0,7.18,7.18h112a7,7,0,0,0,7.18-7.18V153h21.54Z"/></svg>