<svg id="Layer_1" data-name="Layer 1" xmlns="http://www.w3.org/2000/svg" xmlns:xlink="http://www.w3.org/1999/xlink" viewBox="0 0 250 200"><defs><style>.cls-1{fill:#324f83;}.cls-2{mask:url(#mask);}.cls-3{fill:url(#linear-gradient);}</style><mask id="mask" x="46.63" y="0" width="203.37" height="182.2" maskUnits="userSpaceOnUse"><rect class="cls-1" x="93.04" y="59.25" width="7.29" height="7.29"/><rect class="cls-1" x="93.04" y="66.05" width="7.29" height="7.29"/><rect class="cls-1" x="93.04" y="72.37" width="7.29" height="7.29"/><rect class="cls-1" x="93.04" y="78.68" width="7.29" height="7.29"/><rect class="cls-1" x="99.84" y="59.25" width="7.29" height="7.29"/><rect class="cls-1" x="99.84" y="66.05" width="7.29" height="7.29"/><rect class="cls-1" x="99.84" y="72.37" width="7.29" height="7.29"/><rect class="cls-1" x="99.84" y="78.68" width="7.29" height="7.29"/><rect class="cls-1" x="108.09" y="55.85" width="7.29" height="7.29"/><rect class="cls-1" x="106.15" y="66.05" width="7.29" height="7.29"/><rect class="cls-1" x="106.15" y="72.37" width="7.29" height="7.29"/><rect class="cls-1" x="106.15" y="78.68" width="7.29" height="7.29"/><rect class="cls-1" x="143.55" y="18.94" width="7.29" height="7.29"/><rect class="cls-1" x="115.38" y="62.65" width="7.29" height="7.29"/><rect class="cls-1" x="112.95" y="72.37" width="7.29" height="7.29"/><rect class="cls-1" x="112.95" y="78.68" width="7.29" height="7.29"/><rect class="cls-1" x="128.01" y="50.51" width="7.29" height="7.29"/><rect class="cls-1" x="128.01" y="56.83" width="7.29" height="7.29"/><rect class="cls-1" x="128.01" y="63.63" width="7.29" height="7.29"/><rect class="cls-1" x="128.01" y="69.94" width="7.29" height="7.29"/><rect class="cls-1" x="137.72" y="44.68" width="7.29" height="7.29"/><rect class="cls-1" x="134.81" y="56.83" width="7.29" height="7.29"/><rect class="cls-1" x="134.81" y="63.63" width="7.29" height="7.29"/><rect class="cls-1" x="134.81" y="69.94" width="7.29" height="7.29"/><rect class="cls-1" x="174.63" y="5.34" width="7.29" height="7.29"/><rect class="cls-1" x="145.49" y="52.45" width="7.29" height="7.29"/><rect class="cls-1" x="141.12" y="63.63" width="7.29" height="7.29"/><rect class="cls-1" x="141.12" y="69.94" width="7.29" height="7.29"/><rect class="cls-1" x="204.75" y="5.34" width="7.29" height="7.29"/><rect class="cls-1" x="188.23" y="20.4" width="7.29" height="7.29"/><rect class="cls-1" x="152.78" y="59.74" width="7.29" height="7.29"/><rect class="cls-1" x="147.92" y="69.94" width="7.29" height="7.29"/><rect class="cls-1" x="121.21" y="87.42" width="7.29" height="7.29"/><rect class="cls-1" x="121.21" y="93.74" width="7.29" height="7.29"/><rect class="cls-1" x="121.21" y="100.54" width="7.29" height="7.29"/><rect class="cls-1" x="121.21" y="106.85" width="7.29" height="7.29"/><rect class="cls-1" x="127.52" y="87.42" width="7.29" height="7.29"/><rect class="cls-1" x="127.52" y="93.74" width="7.29" height="7.29"/><rect class="cls-1" x="127.52" y="100.54" width="7.29" height="7.29"/><rect class="cls-1" x="127.52" y="106.85" width="7.29" height="7.29"/><rect class="cls-1" x="136.75" y="84.02" width="7.29" height="7.29"/><rect class="cls-1" x="134.32" y="93.74" width="7.29" height="7.29"/><rect class="cls-1" x="134.32" y="100.54" width="7.29" height="7.29"/><rect class="cls-1" x="134.32" y="106.85" width="7.29" height="7.29"/><rect class="cls-1" x="176.58" y="51.97" width="7.29" height="7.29"/><rect class="cls-1" x="143.55" y="91.31" width="7.29" height="7.29"/><rect class="cls-1" x="141.12" y="100.54" width="7.29" height="7.29"/><rect class="cls-1" x="141.12" y="106.85" width="7.29" height="7.29"/><rect class="cls-1" x="164.92" y="43.23" width="7.29" height="7.29"/><rect class="cls-1" x="164.92" y="50.03" width="7.29" height="7.29"/><rect class="cls-1" x="164.92" y="56.34" width="7.29" height="7.29"/><rect class="cls-1" x="164.92" y="63.14" width="7.29" height="7.29"/><rect class="cls-1" x="201.35" width="7.29" height="7.29"/><rect class="cls-1" x="171.23" y="50.03" width="7.29" height="7.29"/><rect class="cls-1" x="171.23" y="56.34" width="7.29" height="7.29"/><rect class="cls-1" x="171.23" y="63.14" width="7.29" height="7.29"/><rect id="SVGID" class="cls-1" x="195.03" y="38.86" width="6.8" height="4.86"/><rect class="cls-1" x="178.03" y="56.34" width="7.29" height="7.29"/><rect class="cls-1" x="178.03" y="63.14" width="7.29" height="7.29"/><rect class="cls-1" x="223.69" y="29.14" width="7.29" height="7.29"/><rect class="cls-1" x="184.35" y="63.14" width="7.29" height="7.29"/><rect class="cls-1" x="157.63" y="80.14" width="7.29" height="7.29"/><rect class="cls-1" x="157.63" y="86.94" width="7.29" height="7.29"/><rect class="cls-1" x="157.63" y="93.74" width="7.29" height="7.29"/><rect class="cls-1" x="157.63" y="99.57" width="7.29" height="7.29"/><rect class="cls-1" x="168.8" y="74.8" width="7.29" height="7.29"/><rect class="cls-1" x="164.43" y="86.94" width="7.29" height="7.29"/><rect class="cls-1" x="164.43" y="93.74" width="7.29" height="7.29"/><rect class="cls-1" x="164.43" y="99.57" width="7.29" height="7.29"/><rect class="cls-1" x="210.09" y="38.37" width="7.29" height="7.29"/><rect class="cls-1" x="175.6" y="82.57" width="7.29" height="7.29"/><rect class="cls-1" x="170.75" y="93.74" width="7.29" height="7.29"/><rect class="cls-1" x="170.75" y="99.57" width="7.29" height="7.29"/><rect class="cls-1" x="224.66" y="26.71" width="7.29" height="7.29"/><rect class="cls-1" x="213.97" y="54.4" width="7.29" height="7.29"/><rect class="cls-1" x="183.86" y="89.85" width="7.29" height="7.29"/><rect class="cls-1" x="177.55" y="99.57" width="7.29" height="7.29"/><rect class="cls-1" x="148.89" y="115.11" width="7.29" height="7.29"/><rect class="cls-1" x="148.89" y="121.91" width="7.29" height="7.29"/><rect class="cls-1" x="148.89" y="128.22" width="7.29" height="7.29"/><rect class="cls-1" x="148.89" y="135.02" width="7.29" height="7.29"/><rect class="cls-1" x="155.69" y="115.11" width="7.29" height="7.29"/><rect class="cls-1" x="155.69" y="121.91" width="7.29" height="7.29"/><rect class="cls-1" x="155.69" y="128.22" width="7.29" height="7.29"/><rect class="cls-1" x="155.69" y="135.02" width="7.29" height="7.29"/><rect class="cls-1" x="164.92" y="112.68" width="7.29" height="7.29"/><rect class="cls-1" x="162.49" y="121.91" width="7.29" height="7.29"/><rect class="cls-1" x="162.49" y="128.22" width="7.29" height="7.29"/><rect class="cls-1" x="162.49" y="135.02" width="7.29" height="7.29"/><rect class="cls-1" x="210.09" y="84.51" width="7.29" height="7.29"/><rect class="cls-1" x="172.69" y="119.97" width="7.29" height="7.29"/><rect class="cls-1" x="168.8" y="128.22" width="7.29" height="7.29"/><rect class="cls-1" x="168.8" y="135.02" width="7.29" height="7.29"/><polygon class="cls-1" points="143 149 143 149.59 143 149.59 143 123 115 123 115 95 88 95 88 68 60 68 60 95.2 60 99.08 60 122.39 60 126.28 60 149.59 60 149.59 60 177 86.31 177 87.69 177 111.49 177 115.38 177 139.78 177 143.05 177 174 177 174 149 143 149"/></mask><linearGradient id="linear-gradient" x1="51.92" y1="187.49" x2="244.71" y2="-5.29" gradientUnits="userSpaceOnUse"><stop offset="0" stop-color="#fff"/><stop offset="0.08" stop-color="#f6f6f6"/><stop offset="0.23" stop-color="#dcdcdc"/><stop offset="0.41" stop-color="#b2b2b2"/><stop offset="0.62" stop-color="#797979"/><stop offset="0.86" stop-color="#303030"/><stop offset="1"/></linearGradient></defs><title>sandstorm-04</title><rect class="cls-1" x="93.04" y="59.25" width="7.29" height="7.29"/><rect class="cls-1" x="93.04" y="66.05" width="7.29" height="7.29"/><rect class="cls-1" x="93.04" y="72.37" width="7.29" height="7.29"/><rect class="cls-1" x="93.04" y="78.68" width="7.29" height="7.29"/><rect class="cls-1" x="99.84" y="59.25" width="7.29" height="7.29"/><rect class="cls-1" x="99.84" y="66.05" width="7.29" height="7.29"/><rect class="cls-1" x="99.84" y="72.37" width="7.29" height="7.29"/><rect class="cls-1" x="99.84" y="78.68" width="7.29" height="7.29"/><rect class="cls-1" x="108.09" y="55.85" width="7.29" height="7.29"/><rect class="cls-1" x="106.15" y="66.05" width="7.29" height="7.29"/><rect class="cls-1" x="106.15" y="72.37" width="7.29" height="7.29"/><rect class="cls-1" x="106.15" y="78.68" width="7.29" height="7.29"/><rect class="cls-1" x="143.55" y="18.94" width="7.29" height="7.29"/><rect class="cls-1" x="115.38" y="62.65" width="7.29" height="7.29"/><rect class="cls-1" x="112.95" y="72.37" width="7.29" height="7.29"/><rect class="cls-1" x="112.95" y="78.68" width="7.29" height="7.29"/><rect class="cls-1" x="128.01" y="50.51" width="7.29" height="7.29"/><rect class="cls-1" x="128.01" y="56.83" width="7.29" height="7.29"/><rect class="cls-1" x="128.01" y="63.63" width="7.29" height="7.29"/><rect class="cls-1" x="128.01" y="69.94" width="7.29" height="7.29"/><rect class="cls-1" x="137.72" y="44.68" width="7.29" height="7.29"/><rect class="cls-1" x="134.81" y="56.83" width="7.29" height="7.29"/><rect class="cls-1" x="134.81" y="63.63" width="7.29" height="7.29"/><rect class="cls-1" x="134.81" y="69.94" width="7.29" height="7.29"/><rect class="cls-1" x="174.63" y="5.34" width="7.29" height="7.29"/><rect class="cls-1" x="145.49" y="52.45" width="7.29" height="7.29"/><rect class="cls-1" x="141.12" y="63.63" width="7.29" height="7.29"/><rect class="cls-1" x="141.12" y="69.94" width="7.29" height="7.29"/><rect class="cls-1" x="204.75" y="5.34" width="7.29" height="7.29"/><rect class="cls-1" x="188.23" y="20.4" width="7.29" height="7.29"/><rect class="cls-1" x="152.78" y="59.74" width="7.29" height="7.29"/><rect class="cls-1" x="147.92" y="69.94" width="7.29" height="7.29"/><rect class="cls-1" x="121.21" y="87.42" width="7.29" height="7.29"/><rect class="cls-1" x="121.21" y="93.74" width="7.29" height="7.29"/><rect class="cls-1" x="121.21" y="100.54" width="7.29" height="7.29"/><rect class="cls-1" x="121.21" y="106.85" width="7.29" height="7.29"/><rect class="cls-1" x="127.52" y="87.42" width="7.29" height="7.29"/><rect class="cls-1" x="127.52" y="93.74" width="7.29" height="7.29"/><rect class="cls-1" x="127.52" y="100.54" width="7.29" height="7.29"/><rect class="cls-1" x="127.52" y="106.85" width="7.29" height="7.29"/><rect class="cls-1" x="136.75" y="84.02" width="7.29" height="7.29"/><rect class="cls-1" x="134.32" y="93.74" width="7.29" height="7.29"/><rect class="cls-1" x="134.32" y="100.54" width="7.29" height="7.29"/><rect class="cls-1" x="134.32" y="106.85" width="7.29" height="7.29"/><rect class="cls-1" x="176.58" y="51.97" width="7.29" height="7.29"/><rect class="cls-1" x="143.55" y="91.31" width="7.29" height="7.29"/><rect class="cls-1" x="141.12" y="100.54" width="7.29" height="7.29"/><rect class="cls-1" x="141.12" y="106.85" width="7.29" height="7.29"/><rect class="cls-1" x="164.92" y="43.23" width="7.29" height="7.29"/><rect class="cls-1" x="164.92" y="50.03" width="7.29" height="7.29"/><rect class="cls-1" x="164.92" y="56.34" width="7.29" height="7.29"/><rect class="cls-1" x="164.92" y="63.14" width="7.29" height="7.29"/><rect class="cls-1" x="201.35" width="7.29" height="7.29"/><rect class="cls-1" x="171.23" y="50.03" width="7.29" height="7.29"/><rect class="cls-1" x="171.23" y="56.34" width="7.29" height="7.29"/><rect class="cls-1" x="171.23" y="63.14" width="7.29" height="7.29"/><rect id="SVGID-2" data-name="SVGID" class="cls-1" x="195.03" y="38.86" width="6.8" height="4.86"/><rect class="cls-1" x="178.03" y="56.34" width="7.29" height="7.29"/><rect class="cls-1" x="178.03" y="63.14" width="7.29" height="7.29"/><rect class="cls-1" x="223.69" y="29.14" width="7.29" height="7.29"/><rect class="cls-1" x="184.35" y="63.14" width="7.29" height="7.29"/><rect class="cls-1" x="157.63" y="80.14" width="7.29" height="7.29"/><rect class="cls-1" x="157.63" y="86.94" width="7.29" height="7.29"/><rect class="cls-1" x="157.63" y="93.74" width="7.29" height="7.29"/><rect class="cls-1" x="157.63" y="99.57" width="7.29" height="7.29"/><rect class="cls-1" x="168.8" y="74.8" width="7.29" height="7.29"/><rect class="cls-1" x="164.43" y="86.94" width="7.29" height="7.29"/><rect class="cls-1" x="164.43" y="93.74" width="7.29" height="7.29"/><rect class="cls-1" x="164.43" y="99.57" width="7.29" height="7.29"/><rect class="cls-1" x="210.09" y="38.37" width="7.29" height="7.29"/><rect class="cls-1" x="175.6" y="82.57" width="7.29" height="7.29"/><rect class="cls-1" x="170.75" y="93.74" width="7.29" height="7.29"/><rect class="cls-1" x="170.75" y="99.57" width="7.29" height="7.29"/><rect class="cls-1" x="224.66" y="26.71" width="7.29" height="7.29"/><rect class="cls-1" x="213.97" y="54.4" width="7.29" height="7.29"/><rect class="cls-1" x="183.86" y="89.85" width="7.29" height="7.29"/><rect class="cls-1" x="177.55" y="99.57" width="7.29" height="7.29"/><rect class="cls-1" x="148.89" y="115.11" width="7.29" height="7.29"/><rect class="cls-1" x="148.89" y="121.91" width="7.29" height="7.29"/><rect class="cls-1" x="148.89" y="128.22" width="7.29" height="7.29"/><rect class="cls-1" x="148.89" y="135.02" width="7.29" height="7.29"/><rect class="cls-1" x="155.69" y="115.11" width="7.29" height="7.29"/><rect class="cls-1" x="155.69" y="121.91" width="7.29" height="7.29"/><rect class="cls-1" x="155.69" y="128.22" width="7.29" height="7.29"/><rect class="cls-1" x="155.69" y="135.02" width="7.29" height="7.29"/><rect class="cls-1" x="164.92" y="112.68" width="7.29" height="7.29"/><rect class="cls-1" x="162.49" y="121.91" width="7.29" height="7.29"/><rect class="cls-1" x="162.49" y="128.22" width="7.29" height="7.29"/><rect class="cls-1" x="162.49" y="135.02" width="7.29" height="7.29"/><rect class="cls-1" x="210.09" y="84.51" width="7.29" height="7.29"/><rect class="cls-1" x="172.69" y="119.97" width="7.29" height="7.29"/><rect class="cls-1" x="168.8" y="128.22" width="7.29" height="7.29"/><rect class="cls-1" x="168.8" y="135.02" width="7.29" height="7.29"/><polygon class="cls-1" points="143 149 143 149.59 143 149.59 143 123 115 123 115 95 88 95 88 68 60 68 60 95.2 60 99.08 60 122.39 60 126.28 60 149.59 60 149.59 60 177 86.31 177 87.69 177 111.49 177 115.38 177 139.78 177 143.05 177 174 177 174 149 143 149"/><g class="cls-2"><rect class="cls-3" x="46.63" width="203.37" height="182.2" transform="translate(296.63 182.2) rotate(180)"/></g></svg>