<svg id="Layer_1" data-name="Layer 1" xmlns="http://www.w3.org/2000/svg" xmlns:xlink="http://www.w3.org/1999/xlink" viewBox="0 0 250 200"><defs><style>.cls-1{fill:none;}.cls-2{fill:#6585b7;}.cls-3{fill:#324f83;}.cls-4{fill:#d0d3f7;}.cls-5{clip-path:url(#clip-path);}</style><clipPath id="clip-path"><path class="cls-1" d="M118.47,109.42L122,87.74s5.22-6.14,10.19-5.49S177,94.14,177,94.14L172.28,111l-53.81-1.57"/></clipPath></defs><title>try-tutorial</title><path class="cls-2" d="M136.62,13.56a31.14,31.14,0,0,0-21.81-8.88A30.55,30.55,0,0,0,84.12,35.37a30.12,30.12,0,0,0,9,21.56C96.4,60.2,100.18,63,104.62,64H105c3.15,2,6.41,1.57,9.93,1.57s6.65,0.43,9.8-1.57h0.39c4.31-1,8.23-3.8,11.49-7.07A30.6,30.6,0,0,0,136.62,13.56Zm-3.92,39.7A25.3,25.3,0,1,1,96.92,17.48,25.3,25.3,0,1,1,132.7,53.27Z"/><path class="cls-3" d="M131.53,35.37h-2.74a14.24,14.24,0,0,1-4,9.93,14,14,0,0,1-9.93,4,14.24,14.24,0,0,1-9.93-4,14,14,0,0,1-4-9.93,14.24,14.24,0,0,1,4-9.93,14,14,0,0,1,9.93-4,14.24,14.24,0,0,1,9.93,4,14,14,0,0,1,4,9.93h5.49a19.62,19.62,0,1,0-5.75,13.71,19.35,19.35,0,0,0,5.75-13.71h-2.74Z"/><path class="cls-4" d="M114.94,88s57.47,5.35,61.91,6.14,1,41.27-2.22,47c-1.44,2.61-12.28,25.34-15.93,25.34H106.84L64.14,98.85s3.13-8,11.75-3.4c4.83,2.61,17.24,14,23.38,19.2,3.79,3.27,6,.78,6,0.78Z"/><path class="cls-4" d="M114.42,29.5H113.5c-4.57,0-8.23,5.49-8.23,9.8V116a8,8,0,0,0,8.23,7.84h2.87a8,8,0,0,0,8.23-7.84V39.29C124.74,33.94,120.95,29.76,114.42,29.5Z"/><rect class="cls-3" x="98.62" y="165.98" width="74.84" height="31.61"/><g class="cls-5"><path class="cls-4" d="M118.47,109.42L122,87.74s5.22-6.14,10.19-5.49S177,94.14,177,94.14L172.28,111l-34-6.53-19.85,5"/><polyline class="cls-2" points="124.61 81.78 124.61 107.07 130.09 107.07 130.09 81.78"/><polyline class="cls-2" points="141.72 82.51 141.72 107.07 147.2 107.07 147.2 82.51"/><polyline class="cls-2" points="158.83 86.19 158.83 107.07 164.31 107.07 164.31 86.19"/></g></svg>