<svg id="Layer_1" data-name="Layer 1" xmlns="http://www.w3.org/2000/svg" viewBox="0 0 250 200"><defs><style>.cls-1{fill:#cfd9f4;opacity:0.6;isolation:isolate;}.cls-2{fill:#5975ad;}.cls-3{fill:#324f83;}.cls-4{fill:#fff;}.cls-5{fill:#d0d3f7;}.cls-6{fill:none;stroke:#fff;stroke-linecap:round;stroke-miterlimit:10;}</style></defs><title>try-demo-app</title><path class="cls-1" d="M207.92,191.61H141.68a5.88,5.88,0,0,1-5.88-5.88V119.49a5.88,5.88,0,0,1,5.88-5.88h66.24a5.88,5.88,0,0,1,5.88,5.88v66.24A5.88,5.88,0,0,1,207.92,191.61Z"/><path class="cls-1" d="M207.84,97.9H141.6A5.88,5.88,0,0,1,135.72,92V25.94a5.88,5.88,0,0,1,5.88-5.88h66.24a5.88,5.88,0,0,1,5.88,5.88V92.18A5.66,5.66,0,0,1,207.84,97.9Z"/><path class="cls-2" d="M204.67,188.52H138.43a5.88,5.88,0,0,1-5.88-5.88V116.39a5.88,5.88,0,0,1,5.88-5.88h66.24a5.88,5.88,0,0,1,5.88,5.88v66.09A5.91,5.91,0,0,1,204.67,188.52Z"/><path class="cls-3" d="M204.75,94.81H138.51a5.88,5.88,0,0,1-5.88-5.88V22.84A5.88,5.88,0,0,1,138.51,17h66.24a5.88,5.88,0,0,1,5.88,5.88V89.08A5.85,5.85,0,0,1,204.75,94.81Z"/><path class="cls-4" d="M184.47,29.8h-37.3a2.28,2.28,0,0,0-2.32,2.32v11.3l-7.12,7.74h7.12v5.73a2.28,2.28,0,0,0,2.32,2.32h37.3a2.28,2.28,0,0,0,2.32-2.32V32.28A2.42,2.42,0,0,0,184.47,29.8Z"/><path class="cls-5" d="M204.9,72.21l-7-7.27V53.64a2.28,2.28,0,0,0-2.32-2.32H159.4a2.28,2.28,0,0,0-2.32,2.32V78.25a2.28,2.28,0,0,0,2.32,2.32h36.22a2.28,2.28,0,0,0,2.32-2.32v-6h7Z"/><path class="cls-5" d="M195.23,176.44h-46.9a1.06,1.06,0,0,1-1.08-1.08V147.19a1.06,1.06,0,0,1,1.08-1.08h46.9a1.06,1.06,0,0,1,1.08,1.08v28.17A1.3,1.3,0,0,1,195.23,176.44Z"/><rect class="cls-4" x="147.25" y="158.03" width="48.91" height="4.33"/><path class="cls-4" d="M199.1,127.85c-0.77-5.42-8-6-12.23-4.8a30.56,30.56,0,0,0-12.69,8.2,18.24,18.24,0,0,0-2.63,3.4,0.15,0.15,0,0,1-.15.15c-0.31.62-1.08,2.79-1.86,2.79h4.33a58.28,58.28,0,0,0,18.57-2.94C195.38,133.73,199.56,131.87,199.1,127.85Zm-6.19,3.56a55.12,55.12,0,0,1-18.57,3.71s8.67-8.2,14.86-9c1.55-.15,3.56-0.31,5,0.62C196.47,128.15,195.07,130.79,192.91,131.4Z"/><path class="cls-4" d="M150.81,134.66a57.6,57.6,0,0,0,18.57,2.94h4.33c-0.77,0-1.55-2.17-1.86-2.79a0.15,0.15,0,0,0-.15-0.15,28.47,28.47,0,0,0-2.63-3.4c-3.4-3.71-8-7-12.69-8.2-4-1.24-11.45-.77-12.23,4.8C143.54,131.87,147.56,133.73,150.81,134.66ZM149,126.76a7,7,0,0,1,5-.62c6.19,0.77,14.86,9,14.86,9a54.38,54.38,0,0,1-18.57-3.71C148.18,130.79,146.63,128.15,149,126.76Z"/><rect class="cls-4" x="169.38" y="147.97" width="4.33" height="28.32"/><rect class="cls-5" x="143.23" y="137.75" width="56.8" height="10.37"/><rect class="cls-4" x="169.38" y="137.75" width="4.33" height="10.37"/><path class="cls-1" d="M114.53,191.61H48.28a5.88,5.88,0,0,1-5.88-5.88V119.49a5.88,5.88,0,0,1,5.88-5.88h66.24a5.88,5.88,0,0,1,5.88,5.88v66.24A5.88,5.88,0,0,1,114.53,191.61Z"/><path class="cls-1" d="M114.45,99H48.21a5.88,5.88,0,0,1-5.88-5.88V26.86A5.88,5.88,0,0,1,48.21,21h66.24a5.88,5.88,0,0,1,5.88,5.88V93.11A5.88,5.88,0,0,1,114.45,99Z"/><path class="cls-3" d="M111.28,188.52H45a5.88,5.88,0,0,1-5.88-5.88V116.39A5.88,5.88,0,0,1,45,110.51h66.24a5.88,5.88,0,0,1,5.88,5.88v66.24A5.88,5.88,0,0,1,111.28,188.52Z"/><path class="cls-2" d="M111.2,95.74H45a5.88,5.88,0,0,1-5.88-5.88V23.61A5.88,5.88,0,0,1,45,17.73H111.2a5.88,5.88,0,0,1,5.88,5.88V89.86A5.88,5.88,0,0,1,111.2,95.74Z"/><rect class="cls-4" x="66.68" y="144.42" width="41.94" height="12.38" transform="translate(-80.15 103.63) rotate(-44.16)"/><rect class="cls-5" x="102.44" y="126.83" width="6.5" height="12.38" transform="translate(-62.8 111.23) rotate(-44.16)"/><polygon class="cls-5" points="66.43 171.03 67.67 161.28 76.34 169.94 66.43 171.03"/><path class="cls-6" d="M65.31,169.63s-18.42,2.94-18.57-5.88,23.06-12.69,25.54-18c2.48-5.11-9.13-3.71-9.13-3.71"/><rect class="cls-5" x="51.9" y="33.67" width="53.17" height="9.6"/><rect class="cls-5" x="51.9" y="52.71" width="53.17" height="8.05"/><rect class="cls-5" x="51.9" y="70.35" width="53.17" height="9.6"/></svg>