<svg id="Layer_1" data-name="Layer 1" xmlns="http://www.w3.org/2000/svg" viewBox="0 0 250 200"><defs><style>.cls-1{fill:#324f83;}.cls-2{fill:#bbbbea;}.cls-3{fill:#6585b7;}.cls-4{fill:#b3bce0;}</style></defs><title>write</title><rect class="cls-1" x="118.05" y="81.98" width="126.58" height="37.26" transform="translate(10.77 218.56) rotate(-63.69)"/><polygon class="cls-1" points="143.4 177.44 137.13 148.12 170.47 164.57 143.4 177.44"/><path class="cls-2" d="M104.55,178.28a3.79,3.79,0,0,0-.67.08c-3,.25-16.21,1.34-31.67,1.34-13.28,0-28.16-.84-39.77-3.59-5.76-1.34-10.69-3.26-14.12-5.68a14.6,14.6,0,0,1-3.93-3.93,9.43,9.43,0,0,1-1.5-4.76v-0.25a8.79,8.79,0,0,1,1.17-4.18c1.42-2.59,4.26-5.18,8.19-7.69,6.85-4.34,17-8.35,28.57-11.95,17.29-5.43,37.6-10.28,54.64-14.87,8.52-2.34,16.12-4.6,22.22-6.85a72.11,72.11,0,0,0,7.85-3.51,16.5,16.5,0,0,0,5-3.84,9.58,9.58,0,0,0,1.5-2.42,5.9,5.9,0,0,0,.5-2.34,4.6,4.6,0,0,0-1-2.92,7.36,7.36,0,0,0-2.09-1.84A18.88,18.88,0,0,0,134,97a59.28,59.28,0,0,0-11-1.59c-4-.33-8.19-0.42-12.11-0.42-9.19,0-17,.58-17,0.58a1.26,1.26,0,0,0,.17,2.51h0.33c1.59-.08,8.44-0.58,16.46-0.58A118.4,118.4,0,0,1,131,98.91a22.63,22.63,0,0,1,6.93,2.17,5.2,5.2,0,0,1,1.75,1.42,2.45,2.45,0,0,1,.5,1.42,2.86,2.86,0,0,1-.33,1.34,8.17,8.17,0,0,1-1.17,1.84,13.52,13.52,0,0,1-3.17,2.59,61.85,61.85,0,0,1-11.7,5.1c-8.61,3-20,6-32.17,9.11-18.3,4.68-38.35,9.78-53.89,15.71-7.77,3-14.45,6.18-19.3,9.69A24.86,24.86,0,0,0,12.73,155a11.92,11.92,0,0,0-2.17,6.52v0.42a12.4,12.4,0,0,0,1.84,6c2,3.09,5.35,5.51,9.44,7.35,6.27,2.84,14.45,4.51,23.31,5.6A247.22,247.22,0,0,0,72.3,182.2c17.8,0,32.58-1.42,32.58-1.42a1.22,1.22,0,0,0,1.09-1.34,1.35,1.35,0,0,0-1.42-1.17h0Z"/><rect class="cls-1" x="118.05" y="81.98" width="126.58" height="37.26" transform="translate(10.77 218.56) rotate(-63.69)"/><rect class="cls-3" x="205.41" y="13.41" width="19.8" height="37.26" transform="translate(91.15 210.84) rotate(-63.69)"/><polygon class="cls-4" points="138.47 180.95 136.63 149.03 169.97 165.49 138.47 180.95"/><polygon class="cls-3" points="137.72 167.58 150.67 174.93 138.47 180.95 137.72 167.58"/></svg>